<?xml version="1.0" encoding="UTF-8"?>
<svg xmlns="http://www.w3.org/2000/svg" xmlns:xlink="http://www.w3.org/1999/xlink" width="32px" height="32px" viewBox="0 0 32 32" version="1.1">
<g id="surface1">
<path style=" stroke:none;fill-rule:evenodd;fill:rgb(0%,0%,0%);fill-opacity:1;" d="M 7.234375 8.8125 L 9.867188 13.378906 C 10.886719 11 13.25 9.332031 16 9.332031 C 16 9.332031 16.003906 9.332031 16.003906 9.332031 L 25.167969 9.335938 C 23.105469 6.503906 19.765625 4.667969 16 4.667969 C 12.46875 4.667969 9.316406 6.28125 7.234375 8.8125 Z M 26.609375 12.003906 L 21.335938 12 C 22.171875 13.117188 22.667969 14.5 22.667969 16 C 22.667969 17.210938 22.339844 18.355469 21.773438 19.335938 L 17.195312 27.269531 C 22.894531 26.671875 27.332031 21.855469 27.332031 16 C 27.332031 14.589844 27.078125 13.246094 26.609375 12.003906 Z M 14.167969 27.1875 L 16.800781 22.617188 C 16.539062 22.652344 16.269531 22.667969 16 22.667969 C 13.53125 22.667969 11.378906 21.324219 10.226562 19.335938 C 10.222656 19.332031 10.21875 19.324219 10.21875 19.320312 L 5.644531 11.390625 C 5.015625 12.796875 4.667969 14.355469 4.667969 16 C 4.667969 21.636719 8.78125 26.308594 14.167969 27.1875 Z M 12.535156 18 C 13.230469 19.199219 14.523438 20 16 20 C 17.476562 20 18.769531 19.199219 19.464844 18 C 19.804688 17.414062 20 16.730469 20 16 C 20 13.792969 18.210938 12 16.003906 12 C 16 12 16 12 16 12 C 13.789062 12 12 13.789062 12 16 C 12 16.726562 12.191406 17.402344 12.527344 17.988281 C 12.53125 17.992188 12.53125 17.996094 12.535156 18 Z M 4.546875 7.945312 C 7.078125 4.351562 11.265625 2 16 2 C 21.628906 2 26.480469 5.324219 28.703125 10.109375 C 29.535156 11.898438 30 13.898438 30 16 C 30 23.730469 23.730469 30 16 30 C 15.582031 30 15.171875 29.980469 14.761719 29.945312 C 7.609375 29.320312 2 23.316406 2 16 C 2 13.003906 2.941406 10.222656 4.546875 7.945312 Z M 4.546875 7.945312 "/>
</g>
</svg>
