<?xml version="1.0" encoding="UTF-8"?>
<svg xmlns="http://www.w3.org/2000/svg" xmlns:xlink="http://www.w3.org/1999/xlink" width="32px" height="32px" viewBox="0 0 32 32" version="1.1">
<g id="surface1">
<path style=" stroke:none;fill-rule:evenodd;fill:rgb(5.882353%,5.882353%,5.882353%);fill-opacity:1;" d="M 16 24 C 20.417969 24 24 20.417969 24 16 C 24 11.582031 20.417969 8 16 8 C 11.582031 8 8 11.582031 8 16 C 8 20.417969 11.582031 24 16 24 Z M 16 21.332031 C 18.945312 21.332031 21.332031 18.945312 21.332031 16 C 21.332031 13.054688 18.945312 10.667969 16 10.667969 C 13.054688 10.667969 10.667969 13.054688 10.667969 16 C 10.667969 18.945312 13.054688 21.332031 16 21.332031 Z M 16 21.332031 "/>
<path style=" stroke:none;fill-rule:nonzero;fill:rgb(5.882353%,5.882353%,5.882353%);fill-opacity:1;" d="M 24 6.667969 C 23.261719 6.667969 22.667969 7.261719 22.667969 8 C 22.667969 8.738281 23.261719 9.332031 24 9.332031 C 24.738281 9.332031 25.332031 8.738281 25.332031 8 C 25.332031 7.261719 24.738281 6.667969 24 6.667969 Z M 24 6.667969 "/>
<path style=" stroke:none;fill-rule:evenodd;fill:rgb(5.882353%,5.882353%,5.882353%);fill-opacity:1;" d="M 2.207031 5.703125 C 1.332031 7.414062 1.332031 9.652344 1.332031 14.132812 L 1.332031 17.867188 C 1.332031 22.347656 1.332031 24.585938 2.207031 26.296875 C 2.972656 27.804688 4.195312 29.027344 5.703125 29.792969 C 7.414062 30.667969 9.652344 30.667969 14.132812 30.667969 L 17.867188 30.667969 C 22.347656 30.667969 24.585938 30.667969 26.296875 29.792969 C 27.804688 29.027344 29.027344 27.804688 29.792969 26.296875 C 30.667969 24.585938 30.667969 22.347656 30.667969 17.867188 L 30.667969 14.132812 C 30.667969 9.652344 30.667969 7.414062 29.792969 5.703125 C 29.027344 4.195312 27.804688 2.972656 26.296875 2.207031 C 24.585938 1.332031 22.347656 1.332031 17.867188 1.332031 L 14.132812 1.332031 C 9.652344 1.332031 7.414062 1.332031 5.703125 2.207031 C 4.195312 2.972656 2.972656 4.195312 2.207031 5.703125 Z M 17.867188 4 L 14.132812 4 C 11.847656 4 10.296875 4.003906 9.097656 4.101562 C 7.925781 4.195312 7.328125 4.367188 6.910156 4.582031 C 5.910156 5.09375 5.09375 5.910156 4.582031 6.910156 C 4.367188 7.328125 4.195312 7.925781 4.101562 9.097656 C 4.003906 10.296875 4 11.847656 4 14.132812 L 4 17.867188 C 4 20.152344 4.003906 21.703125 4.101562 22.902344 C 4.195312 24.074219 4.367188 24.671875 4.582031 25.089844 C 5.09375 26.089844 5.910156 26.90625 6.910156 27.417969 C 7.328125 27.632812 7.925781 27.804688 9.097656 27.898438 C 10.296875 27.996094 11.847656 28 14.132812 28 L 17.867188 28 C 20.152344 28 21.703125 27.996094 22.902344 27.898438 C 24.074219 27.804688 24.671875 27.632812 25.089844 27.417969 C 26.089844 26.90625 26.90625 26.089844 27.417969 25.089844 C 27.632812 24.671875 27.804688 24.074219 27.898438 22.902344 C 27.996094 21.703125 28 20.152344 28 17.867188 L 28 14.132812 C 28 11.847656 27.996094 10.296875 27.898438 9.097656 C 27.804688 7.925781 27.632812 7.328125 27.417969 6.910156 C 26.90625 5.910156 26.089844 5.09375 25.089844 4.582031 C 24.671875 4.367188 24.074219 4.195312 22.902344 4.101562 C 21.703125 4.003906 20.152344 4 17.867188 4 Z M 17.867188 4 "/>
</g>
</svg>
