<?xml version="1.0" encoding="UTF-8"?>
<svg xmlns="http://www.w3.org/2000/svg" xmlns:xlink="http://www.w3.org/1999/xlink" width="32px" height="32px" viewBox="0 0 32 32" version="1.1">
<g id="surface1">
<path style=" stroke:none;fill-rule:nonzero;fill:rgb(5.882353%,5.882353%,5.882353%);fill-opacity:1;" d="M 8.667969 10.667969 C 9.769531 10.667969 10.667969 9.769531 10.667969 8.667969 C 10.667969 7.5625 9.769531 6.667969 8.667969 6.667969 C 7.5625 6.667969 6.667969 7.5625 6.667969 8.667969 C 6.667969 9.769531 7.5625 10.667969 8.667969 10.667969 Z M 8.667969 10.667969 "/>
<path style=" stroke:none;fill-rule:nonzero;fill:rgb(5.882353%,5.882353%,5.882353%);fill-opacity:1;" d="M 6.667969 13.332031 C 6.667969 12.597656 7.261719 12 8 12 L 9.332031 12 C 10.070312 12 10.667969 12.597656 10.667969 13.332031 L 10.667969 24 C 10.667969 24.738281 10.070312 25.332031 9.332031 25.332031 L 8 25.332031 C 7.261719 25.332031 6.667969 24.738281 6.667969 24 Z M 6.667969 13.332031 "/>
<path style=" stroke:none;fill-rule:nonzero;fill:rgb(5.882353%,5.882353%,5.882353%);fill-opacity:1;" d="M 14.667969 25.332031 L 16 25.332031 C 16.738281 25.332031 17.332031 24.738281 17.332031 24 L 17.332031 18 C 17.332031 16 21.332031 14.667969 21.332031 17.332031 L 21.332031 24 C 21.332031 24.738281 21.929688 25.332031 22.667969 25.332031 L 24 25.332031 C 24.738281 25.332031 25.332031 24.738281 25.332031 24 L 25.332031 16 C 25.332031 13.332031 23.332031 12 20.667969 12 C 18 12 17.332031 14 17.332031 14 L 17.332031 13.332031 C 17.332031 12.597656 16.738281 12 16 12 L 14.667969 12 C 13.929688 12 13.332031 12.597656 13.332031 13.332031 L 13.332031 24 C 13.332031 24.738281 13.929688 25.332031 14.667969 25.332031 Z M 14.667969 25.332031 "/>
<path style=" stroke:none;fill-rule:evenodd;fill:rgb(5.882353%,5.882353%,5.882353%);fill-opacity:1;" d="M 26.667969 1.332031 C 28.875 1.332031 30.667969 3.125 30.667969 5.332031 L 30.667969 26.667969 C 30.667969 28.875 28.875 30.667969 26.667969 30.667969 L 5.332031 30.667969 C 3.125 30.667969 1.332031 28.875 1.332031 26.667969 L 1.332031 5.332031 C 1.332031 3.125 3.125 1.332031 5.332031 1.332031 Z M 26.667969 4 C 27.402344 4 28 4.597656 28 5.332031 L 28 26.667969 C 28 27.402344 27.402344 28 26.667969 28 L 5.332031 28 C 4.597656 28 4 27.402344 4 26.667969 L 4 5.332031 C 4 4.597656 4.597656 4 5.332031 4 Z M 26.667969 4 "/>
</g>
</svg>
